solid ascii
  facet normal 0.000000e+000 0.000000e+000 1.000000e+001
    outer loop
      vertex   2.886275e-001 1.467002e+001 7.000000e+001
      vertex   -9.711372e+000 1.467002e+001 7.000000e+001
      vertex   2.886275e-001 -1.532998e+001 7.000000e+001
    endloop
  endfacet
  facet normal 0.000000e+000 0.000000e+000 9.486834e+000
    outer loop
      vertex   2.886275e-001 -1.532998e+001 7.000000e+001
      vertex   -9.711372e+000 1.467002e+001 7.000000e+001
      vertex   -9.711372e+000 -1.532998e+001 7.000000e+001
    endloop
  endfacet
  facet normal 0.000000e+000 0.000000e+000 -1.000000e+001
    outer loop
      vertex   2.886275e-001 -1.532998e+001 4.000000e+001
      vertex   -9.711372e+000 -1.532998e+001 4.000000e+001
      vertex   2.886275e-001 1.467002e+001 4.000000e+001
    endloop
  endfacet
  facet normal 0.000000e+000 0.000000e+000 -9.486834e+000
    outer loop
      vertex   2.886275e-001 1.467002e+001 4.000000e+001
      vertex   -9.711372e+000 -1.532998e+001 4.000000e+001
      vertex   -9.711372e+000 1.467002e+001 4.000000e+001
    endloop
  endfacet
  facet normal 0.000000e+000 -1.000000e+001 0.000000e+000
    outer loop
      vertex   -9.711372e+000 -1.532998e+001 7.000000e+001
      vertex   -9.711372e+000 -1.532998e+001 4.000000e+001
      vertex   2.886275e-001 -1.532998e+001 7.000000e+001
    endloop
  endfacet
  facet normal 0.000000e+000 -3.162278e+000 0.000000e+000
    outer loop
      vertex   2.886275e-001 -1.532998e+001 7.000000e+001
      vertex   -9.711372e+000 -1.532998e+001 4.000000e+001
      vertex   2.886275e-001 -1.532998e+001 4.000000e+001
    endloop
  endfacet
  facet normal -1.000000e+001 -0.000000e+000 -0.000000e+000
    outer loop
      vertex   -9.711372e+000 1.467002e+001 7.000000e+001
      vertex   -9.711372e+000 1.467002e+001 4.000000e+001
      vertex   -9.711372e+000 -1.532998e+001 7.000000e+001
    endloop
  endfacet
  facet normal -7.071068e+000 0.000000e+000 0.000000e+000
    outer loop
      vertex   -9.711372e+000 -1.532998e+001 7.000000e+001
      vertex   -9.711372e+000 1.467002e+001 4.000000e+001
      vertex   -9.711372e+000 -1.532998e+001 4.000000e+001
    endloop
  endfacet
  facet normal 0.000000e+000 1.000000e+001 0.000000e+000
    outer loop
      vertex   2.886275e-001 1.467002e+001 7.000000e+001
      vertex   2.886275e-001 1.467002e+001 4.000000e+001
      vertex   -9.711372e+000 1.467002e+001 7.000000e+001
    endloop
  endfacet
  facet normal 0.000000e+000 3.162278e+000 0.000000e+000
    outer loop
      vertex   -9.711372e+000 1.467002e+001 7.000000e+001
      vertex   2.886275e-001 1.467002e+001 4.000000e+001
      vertex   -9.711372e+000 1.467002e+001 4.000000e+001
    endloop
  endfacet
  facet normal 1.000000e+001 0.000000e+000 0.000000e+000
    outer loop
      vertex   2.886275e-001 -1.532998e+001 7.000000e+001
      vertex   2.886275e-001 -1.532998e+001 4.000000e+001
      vertex   2.886275e-001 1.467002e+001 7.000000e+001
    endloop
  endfacet
  facet normal 7.071068e+000 0.000000e+000 0.000000e+000
    outer loop
      vertex   2.886275e-001 1.467002e+001 7.000000e+001
      vertex   2.886275e-001 -1.532998e+001 4.000000e+001
      vertex   2.886275e-001 1.467002e+001 4.000000e+001
    endloop
  endfacet
endsolid
