solid ascii
  facet normal 0.000000e+000 0.000000e+000 1.000000e+001
    outer loop
      vertex   2.886275e-001 -3.299794e-001 4.000000e+001
      vertex   -9.711372e+000 -3.299794e-001 4.000000e+001
      vertex   2.886275e-001 -1.032998e+001 4.000000e+001
    endloop
  endfacet
  facet normal 0.000000e+000 0.000000e+000 7.071068e+000
    outer loop
      vertex   2.886275e-001 -1.032998e+001 4.000000e+001
      vertex   -9.711372e+000 -3.299794e-001 4.000000e+001
      vertex   -9.711372e+000 -1.032998e+001 4.000000e+001
    endloop
  endfacet
  facet normal 0.000000e+000 0.000000e+000 -1.000000e+001
    outer loop
      vertex   2.886275e-001 -1.032998e+001 0.000000e+000
      vertex   -9.711372e+000 -1.032998e+001 0.000000e+000
      vertex   2.886275e-001 -3.299794e-001 0.000000e+000
    endloop
  endfacet
  facet normal 0.000000e+000 0.000000e+000 -7.071068e+000
    outer loop
      vertex   2.886275e-001 -3.299794e-001 0.000000e+000
      vertex   -9.711372e+000 -1.032998e+001 0.000000e+000
      vertex   -9.711372e+000 -3.299794e-001 0.000000e+000
    endloop
  endfacet
  facet normal 0.000000e+000 -1.000000e+001 0.000000e+000
    outer loop
      vertex   -9.711372e+000 -1.032998e+001 4.000000e+001
      vertex   -9.711372e+000 -1.032998e+001 0.000000e+000
      vertex   2.886275e-001 -1.032998e+001 4.000000e+001
    endloop
  endfacet
  facet normal 0.000000e+000 -2.425356e+000 0.000000e+000
    outer loop
      vertex   2.886275e-001 -1.032998e+001 4.000000e+001
      vertex   -9.711372e+000 -1.032998e+001 0.000000e+000
      vertex   2.886275e-001 -1.032998e+001 0.000000e+000
    endloop
  endfacet
  facet normal -1.000000e+001 -0.000000e+000 -0.000000e+000
    outer loop
      vertex   -9.711372e+000 -3.299794e-001 4.000000e+001
      vertex   -9.711372e+000 -3.299794e-001 0.000000e+000
      vertex   -9.711372e+000 -1.032998e+001 4.000000e+001
    endloop
  endfacet
  facet normal -2.425356e+000 0.000000e+000 0.000000e+000
    outer loop
      vertex   -9.711372e+000 -1.032998e+001 4.000000e+001
      vertex   -9.711372e+000 -3.299794e-001 0.000000e+000
      vertex   -9.711372e+000 -1.032998e+001 0.000000e+000
    endloop
  endfacet
  facet normal 0.000000e+000 1.000000e+001 0.000000e+000
    outer loop
      vertex   2.886275e-001 -3.299794e-001 4.000000e+001
      vertex   2.886275e-001 -3.299794e-001 0.000000e+000
      vertex   -9.711372e+000 -3.299794e-001 4.000000e+001
    endloop
  endfacet
  facet normal 0.000000e+000 2.425356e+000 0.000000e+000
    outer loop
      vertex   -9.711372e+000 -3.299794e-001 4.000000e+001
      vertex   2.886275e-001 -3.299794e-001 0.000000e+000
      vertex   -9.711372e+000 -3.299794e-001 0.000000e+000
    endloop
  endfacet
  facet normal 1.000000e+001 0.000000e+000 0.000000e+000
    outer loop
      vertex   2.886275e-001 -1.032998e+001 4.000000e+001
      vertex   2.886275e-001 -1.032998e+001 0.000000e+000
      vertex   2.886275e-001 -3.299794e-001 4.000000e+001
    endloop
  endfacet
  facet normal 2.425356e+000 0.000000e+000 0.000000e+000
    outer loop
      vertex   2.886275e-001 -3.299794e-001 4.000000e+001
      vertex   2.886275e-001 -1.032998e+001 0.000000e+000
      vertex   2.886275e-001 -3.299794e-001 0.000000e+000
    endloop
  endfacet
endsolid
