solid ascii
  facet normal -0.000000e+000 5.413570e-001 8.407928e-001
    outer loop
      vertex   -1.946083e+000 -1.149205e-001 8.267402e+000
      vertex   5.391724e-002 -1.149205e-001 8.267402e+000
      vertex   -1.946083e+000 1.508199e+001 -1.517358e+000
    endloop
  endfacet
  facet normal -0.000000e+000 5.380729e-001 8.356922e-001
    outer loop
      vertex   -1.946083e+000 1.508199e+001 -1.517358e+000
      vertex   5.391724e-002 -1.149205e-001 8.267402e+000
      vertex   5.391724e-002 1.508199e+001 -1.517358e+000
    endloop
  endfacet
  facet normal 0.000000e+000 8.831472e-001 -4.690959e-001
    outer loop
      vertex   -1.946083e+000 -9.141994e+000 -4.712285e+001
      vertex   -1.946083e+000 1.508199e+001 -1.517358e+000
      vertex   5.391724e-002 -9.141994e+000 -4.712285e+001
    endloop
  endfacet
  facet normal 5.551115e-017 3.417855e-002 -1.815441e-002
    outer loop
      vertex   5.391724e-002 -9.141994e+000 -4.712285e+001
      vertex   -1.946083e+000 1.508199e+001 -1.517358e+000
      vertex   5.391724e-002 1.508199e+001 -1.517358e+000
    endloop
  endfacet
  facet normal 0.000000e+000 -9.799615e-001 1.991872e-001
    outer loop
      vertex   -1.946083e+000 -9.141994e+000 -4.712285e+001
      vertex   5.391724e-002 -9.141994e+000 -4.712285e+001
      vertex   -1.946083e+000 3.868301e-002 -1.955749e+000
    endloop
  endfacet
  facet normal 0.000000e+000 -9.790401e-001 1.989999e-001
    outer loop
      vertex   -1.946083e+000 3.868301e-002 -1.955749e+000
      vertex   5.391724e-002 -9.141994e+000 -4.712285e+001
      vertex   5.391724e-002 3.868301e-002 -1.955749e+000
    endloop
  endfacet
  facet normal 0.000000e+000 -5.413570e-001 -8.407928e-001
    outer loop
      vertex   -1.946083e+000 3.868301e-002 -1.955749e+000
      vertex   5.391724e-002 3.868301e-002 -1.955749e+000
      vertex   -1.946083e+000 -1.508489e+001 7.781791e+000
    endloop
  endfacet
  facet normal 0.000000e+000 -5.380413e-001 -8.356431e-001
    outer loop
      vertex   -1.946083e+000 -1.508489e+001 7.781791e+000
      vertex   5.391724e-002 3.868301e-002 -1.955749e+000
      vertex   5.391724e-002 -1.508489e+001 7.781791e+000
    endloop
  endfacet
  facet normal 0.000000e+000 -9.212298e-001 3.890188e-001
    outer loop
      vertex   -1.946083e+000 4.061818e+000 5.312285e+001
      vertex   -1.946083e+000 -1.508489e+001 7.781791e+000
      vertex   5.391724e-002 4.061818e+000 5.312285e+001
    endloop
  endfacet
  facet normal 0.000000e+000 -3.740383e-002 1.579496e-002
    outer loop
      vertex   5.391724e-002 4.061818e+000 5.312285e+001
      vertex   -1.946083e+000 -1.508489e+001 7.781791e+000
      vertex   5.391724e-002 -1.508489e+001 7.781791e+000
    endloop
  endfacet
  facet normal 0.000000e+000 9.956927e-001 -9.271445e-002
    outer loop
      vertex   -1.946083e+000 4.061818e+000 5.312285e+001
      vertex   5.391724e-002 4.061818e+000 5.312285e+001
      vertex   -1.946083e+000 -1.149205e-001 8.267402e+000
    endloop
  endfacet
  facet normal 0.000000e+000 9.947129e-001 -9.262322e-002
    outer loop
      vertex   -1.946083e+000 -1.149205e-001 8.267402e+000
      vertex   5.391724e-002 4.061818e+000 5.312285e+001
      vertex   5.391724e-002 -1.149205e-001 8.267402e+000
    endloop
  endfacet
  facet normal 3.019318e-001 0.000000e+000 0.000000e+000
    outer loop
      vertex   5.391724e-002 4.061818e+000 5.312285e+001
      vertex   5.391724e-002 -1.508489e+001 7.781791e+000
      vertex   5.391724e-002 -1.149205e-001 8.267402e+000
    endloop
  endfacet
  facet normal 9.998485e-001 0.000000e+000 0.000000e+000
    outer loop
      vertex   5.391724e-002 -1.149205e-001 8.267402e+000
      vertex   5.391724e-002 -1.508489e+001 7.781791e+000
      vertex   5.391724e-002 3.868301e-002 -1.955749e+000
    endloop
  endfacet
  facet normal 8.325649e-001 0.000000e+000 0.000000e+000
    outer loop
      vertex   5.391724e-002 -1.149205e-001 8.267402e+000
      vertex   5.391724e-002 3.868301e-002 -1.955749e+000
      vertex   5.391724e-002 1.508199e+001 -1.517358e+000
    endloop
  endfacet
  facet normal 8.691080e-001 0.000000e+000 0.000000e+000
    outer loop
      vertex   5.391724e-002 1.508199e+001 -1.517358e+000
      vertex   5.391724e-002 3.868301e-002 -1.955749e+000
      vertex   5.391724e-002 -9.141994e+000 -4.712285e+001
    endloop
  endfacet
  facet normal -3.019318e-001 0.000000e+000 0.000000e+000
    outer loop
      vertex   -1.946083e+000 4.061818e+000 5.312285e+001
      vertex   -1.946083e+000 -1.149205e-001 8.267402e+000
      vertex   -1.946083e+000 -1.508489e+001 7.781791e+000
    endloop
  endfacet
  facet normal -5.683325e-001 0.000000e+000 0.000000e+000
    outer loop
      vertex   -1.946083e+000 -1.508489e+001 7.781791e+000
      vertex   -1.946083e+000 -1.149205e-001 8.267402e+000
      vertex   -1.946083e+000 3.868301e-002 -1.955749e+000
    endloop
  endfacet
  facet normal -9.999005e-001 0.000000e+000 0.000000e+000
    outer loop
      vertex   -1.946083e+000 3.868301e-002 -1.955749e+000
      vertex   -1.946083e+000 -1.149205e-001 8.267402e+000
      vertex   -1.946083e+000 1.508199e+001 -1.517358e+000
    endloop
  endfacet
  facet normal -9.737434e-001 0.000000e+000 -0.000000e+000
    outer loop
      vertex   -1.946083e+000 3.868301e-002 -1.955749e+000
      vertex   -1.946083e+000 1.508199e+001 -1.517358e+000
      vertex   -1.946083e+000 -9.141994e+000 -4.712285e+001
    endloop
  endfacet
endsolid
