solid ascii
  facet normal 0.000000e+000 0.000000e+000 1.000000e+001
    outer loop
      vertex   4.559091e-001 9.970473e+000 4.000000e+001
      vertex   -9.544091e+000 9.970473e+000 4.000000e+001
      vertex   4.559091e-001 -2.952429e-002 4.000000e+001
    endloop
  endfacet
  facet normal 0.000000e+000 0.000000e+000 7.071067e+000
    outer loop
      vertex   4.559091e-001 -2.952429e-002 4.000000e+001
      vertex   -9.544091e+000 9.970473e+000 4.000000e+001
      vertex   -9.544091e+000 -2.952429e-002 4.000000e+001
    endloop
  endfacet
  facet normal 0.000000e+000 0.000000e+000 -1.000000e+001
    outer loop
      vertex   4.559091e-001 -2.952429e-002 -8.881784e-015
      vertex   -9.544091e+000 -2.952429e-002 -8.881784e-015
      vertex   4.559091e-001 9.970473e+000 -8.881784e-015
    endloop
  endfacet
  facet normal 0.000000e+000 0.000000e+000 -7.071067e+000
    outer loop
      vertex   4.559091e-001 9.970473e+000 -8.881784e-015
      vertex   -9.544091e+000 -2.952429e-002 -8.881784e-015
      vertex   -9.544091e+000 9.970473e+000 -8.881784e-015
    endloop
  endfacet
  facet normal 0.000000e+000 -1.000000e+001 0.000000e+000
    outer loop
      vertex   -9.544091e+000 -2.952429e-002 4.000000e+001
      vertex   -9.544091e+000 -2.952429e-002 -8.881784e-015
      vertex   4.559091e-001 -2.952429e-002 4.000000e+001
    endloop
  endfacet
  facet normal 0.000000e+000 -2.425356e+000 0.000000e+000
    outer loop
      vertex   4.559091e-001 -2.952429e-002 4.000000e+001
      vertex   -9.544091e+000 -2.952429e-002 -8.881784e-015
      vertex   4.559091e-001 -2.952429e-002 -8.881784e-015
    endloop
  endfacet
  facet normal -1.000000e+001 -0.000000e+000 -0.000000e+000
    outer loop
      vertex   -9.544091e+000 9.970473e+000 4.000000e+001
      vertex   -9.544091e+000 9.970473e+000 -8.881784e-015
      vertex   -9.544091e+000 -2.952429e-002 4.000000e+001
    endloop
  endfacet
  facet normal -2.425356e+000 0.000000e+000 0.000000e+000
    outer loop
      vertex   -9.544091e+000 -2.952429e-002 4.000000e+001
      vertex   -9.544091e+000 9.970473e+000 -8.881784e-015
      vertex   -9.544091e+000 -2.952429e-002 -8.881784e-015
    endloop
  endfacet
  facet normal 0.000000e+000 1.000000e+001 0.000000e+000
    outer loop
      vertex   4.559091e-001 9.970473e+000 4.000000e+001
      vertex   4.559091e-001 9.970473e+000 -8.881784e-015
      vertex   -9.544091e+000 9.970473e+000 4.000000e+001
    endloop
  endfacet
  facet normal 0.000000e+000 2.425356e+000 0.000000e+000
    outer loop
      vertex   -9.544091e+000 9.970473e+000 4.000000e+001
      vertex   4.559091e-001 9.970473e+000 -8.881784e-015
      vertex   -9.544091e+000 9.970473e+000 -8.881784e-015
    endloop
  endfacet
  facet normal 1.000000e+001 0.000000e+000 0.000000e+000
    outer loop
      vertex   4.559091e-001 -2.952429e-002 4.000000e+001
      vertex   4.559091e-001 -2.952429e-002 -8.881784e-015
      vertex   4.559091e-001 9.970473e+000 4.000000e+001
    endloop
  endfacet
  facet normal 2.425356e+000 0.000000e+000 0.000000e+000
    outer loop
      vertex   4.559091e-001 9.970473e+000 4.000000e+001
      vertex   4.559091e-001 -2.952429e-002 -8.881784e-015
      vertex   4.559091e-001 9.970473e+000 -8.881784e-015
    endloop
  endfacet
endsolid
